<?xml version="1.0" encoding="utf-8" ?><svg xmlns="http://www.w3.org/2000/svg" xmlns:xlink="http://www.w3.org/1999/xlink" width="1024" height="1024" viewBox="0 0 1024 1024"><path fill="#8D99AE" transform="scale(2 2)" d="M100.135 280.776C102.259 276.887 109.544 267.231 112.398 263.085L250.372 64.4783C252.447 61.426 252.528 60.383 255.954 58.6852C257.255 58.8431 257.819 59.6024 258.525 60.6291L391.168 250.645C397.943 260.395 405.819 270.84 412.063 280.776C407.685 285.577 398.187 291.771 393.99 297.177C396.483 300.962 398.969 307.333 401.056 311.701L441.538 397.884C449.704 415.415 453.949 419.439 451.772 441.418C451.274 446.45 452.295 449.141 447.095 450.96C444.468 449.703 439.883 445.919 437.34 443.997C424.51 434.272 411.965 424.102 399.236 414.235L371.551 392.599C362.966 385.984 354.202 378.985 345.666 372.561C334.642 364.304 315.604 365.989 305.351 374.7C299.776 379.436 293.129 391.467 288.963 398.051L264.806 436.376C262.807 439.57 259.031 447.052 255.954 448.458C253.085 447.47 250.486 442.362 248.85 439.728L219.593 392.539C216.501 387.537 212.684 380.714 208.814 376.438C200.397 367.137 183.99 365.004 172.902 369.799C165.356 373.062 156.023 381.209 149.165 386.343C123.697 405.365 96.4693 425.678 71.6779 445.552C69.2037 447.535 62.0839 454.246 60.5783 447.708C56.6396 425.248 60.4835 418.467 69.0476 400.183C84.9818 366.164 101.571 330.643 118.622 297.177C112.814 292.049 106.235 285.451 100.135 280.776ZM273.432 94.2308C271.678 91.7046 270.096 89.3786 268.048 87.0611C269.248 89.8686 270.57 92.882 271.446 95.8004C275.411 109.487 280.905 123.13 285.322 136.698L323.944 254.888C324.968 258.109 325.865 262.759 327.732 265.588C329.363 268.059 367.093 296.638 376.046 303.121C384.723 296.047 395.3 287.283 403.291 279.542C400.267 275.042 396.764 270.345 393.621 265.867L284.481 109.989C280.738 104.585 277.396 99.5257 273.432 94.2308ZM239.269 99.027C240.244 96.5369 242.452 89.6619 243.051 87.0611C240.027 91.6044 237.628 95.6562 234.311 100.232C233.054 101.676 230.602 105.368 229.439 107.063L135.936 241.492C127.104 254.19 118.125 266.584 109.582 279.542L125.164 293.184C128.598 296.161 133.134 299.753 135.972 303.121C139.091 300.322 144.092 296.631 147.492 293.958L170.936 275.771C187.061 263.439 184.23 267.846 190.302 249.097L239.269 99.027ZM255.954 209.976C249.259 211.008 247.994 214.499 244.97 220.069C234.175 239.955 218.943 273.204 213.022 295.52C230.283 312.084 242.743 358.834 246.898 381.678C247.822 386.76 250.565 390.103 255.954 391.1C263.645 390.384 264.968 384.557 266.155 378.283C271.581 349.604 280.312 318.596 299.025 295.52C293.534 275.187 279.401 244.436 270.116 225.657C266.372 218.585 264.958 211.014 255.954 209.976ZM92.8378 367.26C91.7116 369.31 89.0823 374.645 88.1677 376.837C86.5563 379.824 85.2209 383.279 83.671 386.418C85.6177 384.886 88.0425 383.304 89.7753 381.904C91.0942 380.997 93.3552 379.246 94.5661 378.24C104.227 371.48 114.965 362.589 124.436 355.355L179.283 313.479C188.058 306.788 198.252 299.652 206.476 292.265C206.93 291.858 208.736 286.646 209.089 285.663L213.161 274.292C219.257 257.382 234.879 217.431 244.813 207.712C252.709 199.987 264.193 201.969 270.276 210.784C279.247 223.782 290.693 253.167 296.539 268.131L302.622 283.92C303.625 286.585 304.677 289.813 305.754 292.352L412.707 374.104C415.736 376.431 419.912 379.885 423.04 381.904C423.722 382.585 427.296 385.331 428.487 386.418C427.456 383.836 426.553 381.766 425.358 379.257L410.715 348.752C402.224 330.719 405.459 334.852 389.445 322.386L363.469 302.202C358.061 298.073 323.572 272.45 321.401 269.126C318.214 264.246 307.511 227.331 305.119 219.976L292.454 181.581C289.106 171.136 285.9 159.946 282.145 149.673L229.485 149.673C228.378 153.437 226.94 157.253 225.761 161.066L207.475 218.775C203.504 231.426 196.457 255.087 191.321 268.123C190.701 269.695 178.383 278.763 175.567 281.017L127.075 319.134C122.976 322.359 112.709 329.477 109.807 332.878C107.428 335.666 93.9781 363.848 92.8378 367.26ZM255.954 71.4259C253.821 75.7428 252.501 80.6693 251.143 85.3003C245.481 104.611 237.874 123.489 231.775 142.613L255.954 142.613L279.714 142.613C278.774 139.494 256.258 71.7791 255.954 71.4259ZM304.489 300.646C289.336 317.707 280.994 345.542 275.69 367.291C273.858 374.801 273.467 383.007 270.087 389.947C263.435 402.567 244.451 399.572 240.65 386.323C238.384 378.422 237.48 370.332 235.623 362.344C230.946 342.616 221.347 316.621 207.943 301.174C197.745 307.378 188.438 315.667 178.979 322.938L97.0616 385.235C74.7079 402.444 64.7885 411.492 66.2566 440.685L137.962 386.002C153.5 374.288 167.672 358.451 188.376 360.066C207.914 359.867 215.261 372.473 224.071 386.291L248.674 425.731C251.02 429.425 253.53 434.185 255.954 437.613C262.802 425.641 270.473 413.979 277.936 402.28C284.268 392.354 290.792 380.334 298.534 371.411C309.033 359.31 333.081 356.613 346.566 364.732C350.538 367.123 354.259 370.32 357.898 373.198L418.448 420.267C426.214 426.331 437.103 435.507 444.996 440.685C445.207 421.596 444.38 412.72 430.176 398.209C419.722 387.531 408.638 379.89 396.824 370.914L353.921 338.201C340.67 327.991 327.711 317.458 313.967 307.804C311.924 306.368 306.013 301.411 304.489 300.646ZM388.392 301.174C386.123 303.184 383.731 305.34 381.608 307.506C385.331 310.58 389.075 313.71 392.908 316.639L397.247 320.154C396.058 317.059 390.046 302.824 388.392 301.174ZM123.98 301.174C121.081 307.313 117.998 313.854 115.544 320.154C116.605 319.11 118.21 317.422 119.387 316.639C122.643 313.748 126.918 310.153 130.396 307.506C128.314 305.345 125.945 303.253 123.98 301.174Z"/><path fill="#DDF2FB" transform="scale(2 2)" d="M231.775 142.613C237.874 123.489 245.481 104.611 251.143 85.3003C252.501 80.6693 253.821 75.7428 255.954 71.4259C256.258 71.7791 278.774 139.494 279.714 142.613L255.954 142.613L231.775 142.613Z"/><path fill="white" transform="scale(2 2)" d="M243.051 87.0611C242.452 89.6619 240.244 96.5369 239.269 99.027L190.302 249.097C184.23 267.846 187.061 263.439 170.936 275.771L147.492 293.958C144.092 296.631 139.091 300.322 135.972 303.121C133.134 299.753 128.598 296.161 125.164 293.184L109.582 279.542C118.125 266.584 127.104 254.19 135.936 241.492L229.439 107.063C230.602 105.368 233.054 101.676 234.311 100.232C237.628 95.6562 240.027 91.6044 243.051 87.0611Z"/><path fill="#EDF2F4" transform="scale(2 2)" d="M268.048 87.0611C270.096 89.3786 271.678 91.7046 273.432 94.2308C272.465 95.3521 272.352 95.0302 271.446 95.8004C270.57 92.882 269.248 89.8686 268.048 87.0611Z"/><path fill="white" transform="scale(2 2)" d="M273.432 94.2308C277.396 99.5257 280.738 104.585 284.481 109.989L393.621 265.867C396.764 270.345 400.267 275.042 403.291 279.542C395.3 287.283 384.723 296.047 376.046 303.121C367.093 296.638 329.363 268.059 327.732 265.588C325.865 262.759 324.968 258.109 323.944 254.888L285.322 136.698C280.905 123.13 275.411 109.487 271.446 95.8004C272.352 95.0302 272.465 95.3521 273.432 94.2308Z"/><path fill="#EDF2F4" transform="scale(2 2)" d="M88.1677 376.837C89.0823 374.645 91.7116 369.31 92.8378 367.26C93.9781 363.848 107.428 335.666 109.807 332.878C112.709 329.477 122.976 322.359 127.075 319.134L175.567 281.017C178.383 278.763 190.701 269.695 191.321 268.123C196.457 255.087 203.504 231.426 207.475 218.775L225.761 161.066C226.94 157.253 228.378 153.437 229.485 149.673L282.145 149.673C285.9 159.946 289.106 171.136 292.454 181.581L305.119 219.976C307.511 227.331 318.214 264.246 321.401 269.126C323.572 272.45 358.061 298.073 363.469 302.202L389.445 322.386C405.459 334.852 402.224 330.719 410.715 348.752L425.358 379.257C424.151 379.553 423.278 379.99 422.576 381.013L423.04 381.904C419.912 379.885 415.736 376.431 412.707 374.104L305.754 292.352C304.677 289.813 303.625 286.585 302.622 283.92L296.539 268.131C290.693 253.167 279.247 223.782 270.276 210.784C264.193 201.969 252.709 199.987 244.813 207.712C234.879 217.431 219.257 257.382 213.161 274.292L209.089 285.663C208.736 286.646 206.93 291.858 206.476 292.265C198.252 299.652 188.058 306.788 179.283 313.479L124.436 355.355C114.965 362.589 104.227 371.48 94.5661 378.24C93.3552 379.246 91.0942 380.997 89.7753 381.904C90.3989 378.42 91.9983 382.163 89.2172 375.854L88.8854 376.06C88.6722 376.623 88.7666 376.377 88.1677 376.837Z"/><path fill="#D2C6F6" transform="scale(2 2)" d="M213.022 295.52C218.943 273.204 234.175 239.955 244.97 220.069C247.994 214.499 249.259 211.008 255.954 209.976C264.958 211.014 266.372 218.585 270.116 225.657C279.401 244.436 293.534 275.187 299.025 295.52C280.312 318.596 271.581 349.604 266.155 378.283C264.968 384.557 263.645 390.384 255.954 391.1C250.565 390.103 247.822 386.76 246.898 381.678C242.743 358.834 230.283 312.084 213.022 295.52Z"/><path fill="#DDF2FB" transform="scale(2 2)" d="M207.943 301.174C221.347 316.621 230.946 342.616 235.623 362.344C237.48 370.332 238.384 378.422 240.65 386.323C244.451 399.572 263.435 402.567 270.087 389.947C273.467 383.007 273.858 374.801 275.69 367.291C280.994 345.542 289.336 317.707 304.489 300.646C306.013 301.411 311.924 306.368 313.967 307.804C327.711 317.458 340.67 327.991 353.921 338.201L396.824 370.914C408.638 379.89 419.722 387.531 430.176 398.209C444.38 412.72 445.207 421.596 444.996 440.685C437.103 435.507 426.214 426.331 418.448 420.267L357.898 373.198C354.259 370.32 350.538 367.123 346.566 364.732C333.081 356.613 309.033 359.31 298.534 371.411C290.792 380.334 284.268 392.354 277.936 402.28C270.473 413.979 262.802 425.641 255.954 437.613C253.53 434.185 251.02 429.425 248.674 425.731L224.071 386.291C215.261 372.473 207.914 359.867 188.376 360.066C167.672 358.451 153.5 374.288 137.962 386.002L66.2566 440.685C64.7885 411.492 74.7079 402.444 97.0616 385.235L178.979 322.938C188.438 315.667 197.745 307.378 207.943 301.174Z"/><path fill="white" transform="scale(2 2)" d="M381.608 307.506C383.731 305.34 386.123 303.184 388.392 301.174C390.046 302.824 396.058 317.059 397.247 320.154L392.908 316.639C389.075 313.71 385.331 310.58 381.608 307.506Z"/><path fill="white" transform="scale(2 2)" d="M115.544 320.154C117.998 313.854 121.081 307.313 123.98 301.174C125.945 303.253 128.314 305.345 130.396 307.506C126.918 310.153 122.643 313.748 119.387 316.639C118.21 317.422 116.605 319.11 115.544 320.154Z"/></svg>