<?xml version="1.0" encoding="utf-8" ?><svg xmlns="http://www.w3.org/2000/svg" xmlns:xlink="http://www.w3.org/1999/xlink" width="256" height="256" viewBox="0 0 256 256"><path fill="#006D77" transform="scale(0.5 0.5)" d="M257.088 449.706C254.028 450.206 252.202 446.736 250.405 444.687L204.915 392.069C190.718 375.692 189.932 367.246 169.691 377.464L60.4284 433.126C51.6095 437.665 42.0037 443.019 32.7655 446.727C29.4328 448.064 28.737 440.753 28.4887 438.595C25.6767 414.153 33.1384 398.332 45.63 378.573L108.72 278.006C122.236 256.379 130.932 246.585 137.785 221.591C141.548 207.864 149.58 198.207 157.964 187.122L252.126 63.97C253.176 62.5999 253.915 62.2201 255.347 61.2313C259.591 61.2585 270.153 77.9739 273.454 82.167L358.52 192.427C361.327 196.094 364.105 199.582 366.682 203.348C375.752 216.602 375.001 232.655 383.524 246.865C390.435 258.387 398.08 269.693 405.293 281.055L463.041 371.585C477.144 393.533 486.288 413.201 482.136 440.811C481.559 444.651 481.485 448.495 476.488 446L353.358 383.8C350.07 382.121 331.513 371.777 329.595 371.599C324.145 371.095 305.982 393.702 302.394 397.771L266.941 438.531C264.678 441.141 259.391 447.762 257.088 449.706ZM326.497 305.607C323.127 301.381 319.178 297.278 315.713 293.124C286.061 257.618 267.68 220.731 257.704 175.18C257.339 173.515 256.438 168.179 255.764 166.918L255.484 167.144L255.347 168.443C254.88 170.908 254.002 174.831 253.693 177.196L253.538 177.682C252.47 181.095 251.841 185.396 250.876 188.911C238.031 235.711 217.895 270.514 185.554 305.607C188.144 304.339 190.715 302.454 193.117 300.839C211.523 288.463 235.673 273.474 255.955 264.043C259.598 265.23 268.555 270.371 272.208 272.307C292.02 282.806 308.113 293.384 326.497 305.607ZM211.952 321.726C199.238 321.665 185.008 321.438 172.384 321.726C161.501 330.353 151.647 340.55 141.36 349.88L82.6306 403.151C75.8256 409.297 68.5935 416.184 61.7722 422.154C59.1252 424.472 56.3824 426.737 53.6826 428.998C63.0625 425.147 73.6319 419.205 82.8553 414.61L144.726 383.277C155.018 377.977 165.537 372.309 176.091 367.57C190.325 361.179 201.462 378.11 209.32 387.128L239.82 422.384C243.495 426.631 249.586 434.294 253.42 438.01L253.693 438.273C250.52 407.933 243.421 346.111 219.603 323.626C217.099 321.263 215.128 321.525 211.952 321.726ZM299.604 321.726C289.713 321.7 285.185 331.747 281.211 339.778C266.561 369.39 261.682 405.62 258.754 438.273C271.288 424.252 284.129 409.133 296.316 394.791C304.059 386.364 321.438 359.587 334.318 366.403C341.341 370.206 348.483 373.803 355.61 377.424L434.93 417.94C442.923 421.923 451.707 426.115 459.411 430.546C450.657 422.064 437.418 408.586 427.766 401.692C425.102 398.823 420.757 395.076 417.752 392.294L356.396 336.562C351.015 331.747 345.278 326.362 339.813 321.726L299.604 321.726ZM253.062 73.1882C246.772 80.7902 240.371 90.0315 234.348 97.9078L164.295 189.584C148.593 210.576 147.105 213.212 139.918 237.016C134.474 252.007 124.111 265.601 115.755 279.102L51.8859 381.087C39.698 400.484 32.9801 412.701 34.5373 436.966C38.0627 434.646 40.8288 431.852 43.9743 429.106C57.5603 417.243 70.876 405.086 84.3071 393.047L159.527 324.603C162.269 322.1 166.099 318.941 168.492 316.366L168.492 227.377C169.714 225.122 179.37 215.747 181.698 213.404L236.955 157.155C241.565 152.454 248.409 144.83 253.062 140.804L253.097 80.3637C253.112 78.6705 253.244 74.7109 253.062 73.1882ZM259.478 74.3842C259.817 96.3562 259.274 118.768 259.478 140.804C267.223 149.043 274.512 156.358 282.324 164.375L333.748 216.866C336.927 220.085 340.99 223.737 343.523 227.377L343.523 316.366C346.865 318.512 357.192 328.372 360.625 331.555L443.127 406.75C454.229 416.815 465.183 427.117 476.474 436.966C476.699 407.93 472.51 399.706 458.531 377.117C448.015 360.124 437.204 343.263 426.417 326.44L395.566 278.041C386.976 264.316 376.179 250.625 371.289 235.048C368.404 225.857 367.151 215.636 361.631 207.331C354.597 197.262 346.65 187.306 339.173 177.554L269.006 86.6083C267.614 84.7686 260.214 74.7625 259.478 74.3842ZM252.209 151.392C248.7 153.667 241.291 161.816 238.053 165.125L185.6 218.508C183.537 220.649 176.53 227.644 175.007 229.788L174.979 297.22C174.953 300.582 174.803 304.054 175.007 307.397C212.041 268.954 236.965 227.626 247.527 174.853C248.005 172.464 252.486 152.511 252.209 151.392ZM259.478 151.392C261.083 156.804 261.752 162.572 262.913 168.139C272.558 214.396 290.034 252.853 320.907 289.458C322.77 291.667 335.571 307.552 337.151 307.397L337.151 229.788C331.762 223.712 324.946 217.218 319.171 211.298L279.548 171.187C274.805 166.438 264.77 154.663 259.478 151.392ZM255.955 271.471C233.713 281.102 202.776 301.04 183.962 315.261L204.907 315.249C212.822 315.234 219.452 313.578 225.402 320.101C243.265 339.687 252.62 375.983 255.844 401.367C256.028 402.812 256.609 403.15 257.088 401.692C256.932 396.089 258.315 390.788 259.372 385.352C262.222 370.69 276.841 314.329 297.089 315.245C306.531 315.261 320.705 316.168 329.795 315.261C323.265 311.097 317.101 306.495 310.624 302.256C304.932 298.531 260.645 271.874 255.955 271.471Z"/><path fill="#60D9FF" transform="scale(0.5 0.5)" d="M34.5373 436.966C32.9801 412.701 39.698 400.484 51.8859 381.087L115.755 279.102C124.111 265.601 134.474 252.007 139.918 237.016C147.105 213.212 148.593 210.576 164.295 189.584L234.348 97.9078C240.371 90.0315 246.772 80.7902 253.062 73.1882C253.244 74.7109 253.112 78.6705 253.097 80.3637L253.062 140.804C248.409 144.83 241.565 152.454 236.955 157.155L181.698 213.404C179.37 215.747 169.714 225.122 168.492 227.377L168.492 316.366C166.099 318.941 162.269 322.1 159.527 324.603L84.3071 393.047C70.876 405.086 57.5603 417.243 43.9743 429.106C40.8288 431.852 38.0627 434.646 34.5373 436.966Z"/><path fill="#60D9FF" transform="scale(0.5 0.5)" d="M259.478 140.804C259.274 118.768 259.817 96.3562 259.478 74.3842C260.214 74.7625 267.614 84.7686 269.006 86.6083L339.173 177.554C346.65 187.306 354.597 197.262 361.631 207.331C367.151 215.636 368.404 225.857 371.289 235.048C376.179 250.625 386.976 264.316 395.566 278.041L426.417 326.44C437.204 343.263 448.015 360.124 458.531 377.117C472.51 399.706 476.699 407.93 476.474 436.966C465.183 427.117 454.229 416.815 443.127 406.75L360.625 331.555C357.192 328.372 346.865 318.512 343.523 316.366L343.523 227.377C340.99 223.737 336.927 220.085 333.748 216.866L282.324 164.375C274.512 156.358 267.223 149.043 259.478 140.804Z"/><path fill="#83C5BE" transform="scale(0.5 0.5)" d="M175.007 229.788C176.53 227.644 183.537 220.649 185.6 218.508L238.053 165.125C241.291 161.816 248.7 153.667 252.209 151.392C252.486 152.511 248.005 172.464 247.527 174.853C236.965 227.626 212.041 268.954 175.007 307.397C174.803 304.054 174.953 300.582 174.979 297.22L175.007 229.788Z"/><path fill="#83C5BE" transform="scale(0.5 0.5)" d="M337.151 307.397C335.571 307.552 322.77 291.667 320.907 289.458C290.034 252.853 272.558 214.396 262.913 168.139C261.752 162.572 261.083 156.804 259.478 151.392C264.77 154.663 274.805 166.438 279.548 171.187L319.171 211.298C324.946 217.218 331.762 223.712 337.151 229.788L337.151 307.397Z"/><path fill="#60D9FF" transform="scale(0.5 0.5)" d="M255.347 168.443L255.484 167.144L255.764 166.918C256.438 168.179 257.339 173.515 257.704 175.18C267.68 220.731 286.061 257.618 315.713 293.124C319.178 297.278 323.127 301.381 326.497 305.607C308.113 293.384 292.02 282.806 272.208 272.307C268.555 270.371 259.598 265.23 255.955 264.043C256.409 261.984 255.952 247.769 255.953 244.459L255.954 201.934C255.954 196.081 256.261 187.037 255.955 181.384C256.207 176.571 255.981 173.152 255.347 168.443Z"/><path fill="#EDF6F9" transform="scale(0.5 0.5)" d="M255.347 168.443C255.981 173.152 256.207 176.571 255.955 181.384C256.261 187.037 255.954 196.081 255.954 201.934L255.953 244.459C255.952 247.769 256.409 261.984 255.955 264.043C235.673 273.474 211.523 288.463 193.117 300.839C190.715 302.454 188.144 304.339 185.554 305.607C217.895 270.514 238.031 235.711 250.876 188.911C251.841 185.396 252.47 181.095 253.538 177.682L253.693 177.196C254.002 174.831 254.88 170.908 255.347 168.443Z"/><defs><linearGradient id="gradient_0" gradientUnits="userSpaceOnUse" x1="329.09238" y1="318.86533" x2="194.75479" y2="352.48233"><stop offset="0" stop-color="#55C0FF"/><stop offset="1" stop-color="#EDDDDD"/></linearGradient></defs><path fill="url(#gradient_0)" transform="scale(0.5 0.5)" d="M183.962 315.261C202.776 301.04 233.713 281.102 255.955 271.471C260.645 271.874 304.932 298.531 310.624 302.256C317.101 306.495 323.265 311.097 329.795 315.261C320.705 316.168 306.531 315.261 297.089 315.245C276.841 314.329 262.222 370.69 259.372 385.352C258.315 390.788 256.932 396.089 257.088 401.692C256.609 403.15 256.028 402.812 255.844 401.367C252.62 375.983 243.265 339.687 225.402 320.101C219.452 313.578 212.822 315.234 204.907 315.249L183.962 315.261Z"/><path fill="#83C5BE" transform="scale(0.5 0.5)" d="M172.384 321.726C185.008 321.438 199.238 321.665 211.952 321.726C215.128 321.525 217.099 321.263 219.603 323.626C243.421 346.111 250.52 407.933 253.693 438.273L253.42 438.01C249.586 434.294 243.495 426.631 239.82 422.384L209.32 387.128C201.462 378.11 190.325 361.179 176.091 367.57C165.537 372.309 155.018 377.977 144.726 383.277L82.8553 414.61C73.6319 419.205 63.0625 425.147 53.6826 428.998C56.3824 426.737 59.1252 424.472 61.7722 422.154C68.5935 416.184 75.8256 409.297 82.6306 403.151L141.36 349.88C151.647 340.55 161.501 330.353 172.384 321.726Z"/><path fill="#83C5BE" transform="scale(0.5 0.5)" d="M258.754 438.273C261.682 405.62 266.561 369.39 281.211 339.778C285.185 331.747 289.713 321.7 299.604 321.726L339.813 321.726C345.278 326.362 351.015 331.747 356.396 336.562L417.752 392.294C420.757 395.076 425.102 398.823 427.766 401.692C437.418 408.586 450.657 422.064 459.411 430.546C451.707 426.115 442.923 421.923 434.93 417.94L355.61 377.424C348.483 373.803 341.341 370.206 334.318 366.403C321.438 359.587 304.059 386.364 296.316 394.791C284.129 409.133 271.288 424.252 258.754 438.273Z"/></svg>